<?xml version="1.0" encoding="UTF-8"?>
<svg width="100px" height="50px" viewBox="0 0 100 50" version="1.1" xmlns="http://www.w3.org/2000/svg" xmlns:xlink="http://www.w3.org/1999/xlink">
    <!-- Generator: Sketch 61.2 (89653) - https://sketch.com -->
    <title>arrow</title>
    <desc>Created with Sketch.</desc>
    <g id="Page-1" stroke="none" stroke-width="1" fill="none" fill-rule="evenodd">
        <path d="M73.6424285,21.0979992 L35.7684511,-23.402452 C34.8924723,-24.4325249 33.7231166,-25 32.4762651,-25 C31.2294137,-25 30.060058,-24.4325249 29.1840792,-23.402452 L26.3949237,-20.1260559 C24.5800007,-17.9911139 24.5800007,-14.5212234 26.3949237,-12.3895334 L58.1986304,24.9792685 L26.3596354,62.3895334 C25.4836566,63.4196063 25,64.7927659 25,66.2569817 C25,67.7228234 25.4836566,69.095983 26.3596354,70.1268689 L29.1487909,73.402452 C30.0254617,74.4325249 31.1941255,75 32.4409769,75 C33.6878283,75 34.857184,74.4325249 35.7331629,73.402452 L73.6424285,28.8613507 C74.5204831,27.8280258 75.0027559,26.4483622 75,24.9817075 C75.0027559,23.5093617 74.5204831,22.1305111 73.6424285,21.0979992 Z" id="arrow" fill="#FFFFFF" fill-rule="nonzero" transform="translate(50.000000, 25.000000) rotate(90.000000) translate(-50.000000, -25.000000) "></path>
    </g>
</svg>