<?xml version="1.0" encoding="UTF-8"?>
<svg width="167px" height="167px" viewBox="0 0 167 167" version="1.1" xmlns="http://www.w3.org/2000/svg" xmlns:xlink="http://www.w3.org/1999/xlink">
    <!-- Generator: Sketch 61.2 (89653) - https://sketch.com -->
    <title>ufo_bird3</title>
    <desc>Created with Sketch.</desc>
    <g id="Page-1" stroke="none" stroke-width="1" fill="none" fill-rule="evenodd">
        <g id="Group-Copy" transform="translate(-69.000000, -144.000000)" fill="#FFFFFF">
            <g id="medal" transform="translate(39.000000, 42.000000)">
                <g id="ufo_bird3" transform="translate(113.673312, 185.078427) scale(-1, -1) rotate(61.000000) translate(-113.673312, -185.078427) translate(30.673312, 102.078427)">
                    <path d="M82.8356855,0 C128.584571,0 165.671371,37.0867997 165.671371,82.8356855 C165.671371,125.730663 133.067347,161.010563 91.2893832,165.2453 L91.2888583,160.000523 C119.962366,155.898823 142.004032,131.239191 142.004032,101.431452 C142.004032,68.753676 115.513461,42.2631048 82.8356855,42.2631048 C50.1579099,42.2631048 23.6673387,68.753676 23.6673387,101.431452 C23.6673387,131.239461 45.7094055,155.899271 74.3832939,160.000635 L74.3829891,165.245401 C32.6045454,161.011127 0,125.731006 0,82.8356855 C0,37.0867997 37.0867997,0 82.8356855,0 Z" id="Combined-Shape"></path>
                    <path d="M83.489201,-0.474785093 C96.1234012,3.69711411 109.113775,16.5606359 115.719854,30.8377955 C120.125013,40.3582927 121.152578,49.4002939 118.197881,56.187907 C114.611719,64.4261364 101.371638,69.702026 81.3788805,72.7592991 C74.5241111,73.8075239 67.2272358,74.534336 59.6278637,75.0144642 C56.7699563,75.1950267 53.9966752,75.3327377 51.1857691,75.4427023 C50.1278548,75.4840886 49.1127132,75.5197777 47.9972624,75.5558555 C47.5122263,75.5715434 45.9565003,75.620044 45.6605209,75.6297382 L44.8648981,75.6557972 L45.1868781,74.92777 C46.1418022,72.7685967 47.7210736,71.7871305 50.8129606,70.8319328 C50.9970776,70.7750523 51.1694579,70.72273 51.5216423,70.6162471 C55.0676636,69.5418439 56.2188088,68.695706 56.4039716,66.2237776 C56.6371212,63.1112249 58.3602151,61.3023604 61.1457134,60.7662325 C63.3535192,60.3412936 66.1544927,60.7489038 68.8200746,61.7294101 C69.5464162,61.9965872 72.6987108,63.2579119 73.3960831,63.5250375 C75.7214768,64.4157701 77.638742,65.0346755 79.4778602,65.4384026 C85.797806,66.8257701 89.9482313,65.3258251 91.7487075,59.7456134 C91.898704,59.2807296 91.9570681,58.8265917 91.9287259,58.3665433 C91.8254392,56.6899986 90.8302709,55.1867126 87.5923005,51.4227404 C82.8050535,45.8578148 80.8400677,43.3654061 77.9521754,38.7289078 C75.0141341,34.0118956 73.5859021,29.9809433 73.5859021,24.5925779 C73.5859021,14.811681 76.7749039,3.93788339 83.0475446,-0.410906167 L83.2524459,-0.552963229 L83.489201,-0.474785093 Z M62.5493952,64.7399194 C61.8918868,64.7399194 61.358871,65.2729352 61.358871,65.9304435 C61.358871,66.5879519 61.8918868,67.1209677 62.5493952,67.1209677 C63.2069035,67.1209677 63.7399194,66.5879519 63.7399194,65.9304435 C63.7399194,65.2729352 63.2069035,64.7399194 62.5493952,64.7399194 Z" id="Combined-Shape" stroke="#000000" stroke-linecap="square" stroke-linejoin="round"></path>
                </g>
            </g>
        </g>
    </g>
</svg>